<?xml version="1.0" encoding="UTF-8" standalone="no"?><svg xmlns="http://www.w3.org/2000/svg" xmlns:xlink="http://www.w3.org/1999/xlink" contentScriptType="application/ecmascript" contentStyleType="text/css" height="551px" preserveAspectRatio="none" style="width:746px;height:551px;" version="1.1" viewBox="0 0 746 551" width="746px" zoomAndPan="magnify"><defs><filter height="300%" id="fzoq8kildisoy" width="300%" x="-1" y="-1"><feGaussianBlur result="blurOut" stdDeviation="2.0"/><feColorMatrix in="blurOut" result="blurOut2" type="matrix" values="0 0 0 0 0 0 0 0 0 0 0 0 0 0 0 0 0 0 .4 0"/><feOffset dx="4.0" dy="4.0" in="blurOut2" result="blurOut3"/><feBlend in="SourceGraphic" in2="blurOut3" mode="normal"/></filter></defs><g><!--cluster caade--><polygon fill="#FFFFFF" filter="url(#fzoq8kildisoy)" points="22,24,22,24.5822,32.058,24.4129,42.1159,24.2461,52.1739,23.4427,62.2319,23.9831,72.2899,24.4855,82.3478,23.4938,92.4058,23.5033,102.4638,24.3854,112.5217,23.407,122.5797,23.7932,132.6377,23.3873,142.6957,24.4125,152.7536,24.4958,162.8116,23.7759,172.8696,23.8504,182.9275,24.456,192.9855,23.6004,203.0435,24.0897,213.1014,24.5668,223.1594,24.3755,233.2174,24.2275,243.2754,23.4164,253.3333,24.7097,263.3913,24.6939,273.4493,24.3354,283.5072,23.8297,293.5652,23.7597,303.6232,23.9229,313.6812,23.7017,323.7391,23.7324,333.7971,23.3686,343.8551,24.6937,353.913,24.47,363.971,23.6269,374.029,24.3387,384.087,23.9825,394.1449,23.8842,404.2029,24.3135,414.2609,23.9709,424.3188,23.9141,434.3768,23.8185,444.4348,23.7845,454.4928,24.1765,464.5507,23.9007,474.6087,24.0241,484.6667,23.5774,494.7246,23.8441,504.7826,24.2195,514.8406,24.5182,524.8986,24.179,534.9565,23.5023,545.0145,24.5652,555.0725,24.2583,565.1304,24.2265,575.1884,24.3217,585.2464,24.6168,595.3043,24.1596,605.3623,24.2356,615.4203,23.4545,625.4783,23.7432,635.5362,23.6329,645.5942,23.3939,655.6522,24.6191,665.7101,24.6355,675.7681,23.6437,685.8261,23.6004,695.8841,24.6993,705.942,24.3949,716,24,716.3184,24,715.8973,33.9231,716.4423,43.8462,715.9212,53.7692,716.3537,63.6923,715.7355,73.6154,716.6071,83.5385,715.8481,93.4615,715.916,103.3846,716.6402,113.3077,716.6379,123.2308,716.7425,133.1538,715.3539,143.0769,716.2928,153,716.6087,162.9231,715.3418,172.8462,715.884,182.7692,716.3272,192.6923,715.8156,202.6154,716.2311,212.5385,715.9546,222.4615,716.2438,232.3846,716.4727,242.3077,715.5752,252.2308,716.7317,262.1538,716.2841,272.0769,715.499,282,715.3041,291.9231,716.605,301.8462,715.8688,311.7692,715.3759,321.6923,716.021,331.6154,715.2578,341.5385,715.2989,351.4615,715.9877,361.3846,715.3401,371.3077,715.7019,381.2308,715.3353,391.1538,715.2584,401.0769,715.8886,411,715.7334,420.9231,716.025,430.8462,716.2362,440.7692,715.3055,450.6923,715.528,460.6154,715.7168,470.5385,715.5842,480.4615,715.7453,490.3846,715.5549,500.3077,715.6118,510.2308,715.6818,520.1538,715.656,530.0769,716,540,716,539.6573,705.942,539.9335,695.8841,539.2507,685.8261,539.4321,675.7681,539.5167,665.7101,539.8546,655.6522,539.578,645.5942,539.4562,635.5362,539.7891,625.4783,540.7156,615.4203,540.0166,605.3623,539.5335,595.3043,539.9801,585.2464,539.7796,575.1884,539.5153,565.1304,539.7946,555.0725,540.1015,545.0145,539.3196,534.9565,539.4415,524.8986,539.7846,514.8406,539.3381,504.7826,540.7043,494.7246,539.4355,484.6667,540.6868,474.6087,540.3342,464.5507,540.3502,454.4928,539.9583,444.4348,539.4272,434.3768,540.3017,424.3188,539.4407,414.2609,540.5715,404.2029,539.2923,394.1449,539.9403,384.087,540.1666,374.029,540.3199,363.971,539.6484,353.913,540.6573,343.8551,540.4312,333.7971,539.8693,323.7391,539.8903,313.6812,539.7694,303.6232,539.477,293.5652,539.7914,283.5072,540.3622,273.4493,540.2728,263.3913,540.7327,253.3333,540.5737,243.2754,540.6879,233.2174,539.3702,223.1594,539.349,213.1014,540.081,203.0435,539.7184,192.9855,540.2499,182.9275,540.3923,172.8696,539.7842,162.8116,540.1571,152.7536,540.125,142.6957,539.9903,132.6377,540.1291,122.5797,539.8483,112.5217,539.7502,102.4638,540.3779,92.4058,540.4132,82.3478,540.7236,72.2899,540.0546,62.2319,540.2777,52.1739,539.4996,42.1159,539.4834,32.058,540.1443,22,540,21.356,540,22.1026,530.0769,21.2543,520.1538,22.2555,510.2308,22.1383,500.3077,22.2423,490.3846,22.2045,480.4615,22.26,470.5385,22.2333,460.6154,21.2809,450.6923,21.9154,440.7692,22.559,430.8462,22.0107,420.9231,21.7209,411,22.2086,401.0769,22.6293,391.1538,21.5014,381.2308,21.6669,371.3077,22.5993,361.3846,22.6231,351.4615,22.2405,341.5385,21.5261,331.6154,22.1014,321.6923,21.7606,311.7692,21.5527,301.8462,22.1524,291.9231,21.7419,282,21.7965,272.0769,21.8886,262.1538,21.7165,252.2308,21.8504,242.3077,21.585,232.3846,21.7562,222.4615,21.6199,212.5385,21.4773,202.6154,22.7171,192.6923,22.0547,182.7692,21.7583,172.8462,22.1603,162.9231,21.3537,153,21.7119,143.0769,21.3768,133.1538,22.2032,123.2308,22.2327,113.3077,21.9462,103.3846,22.1565,93.4615,22.152,83.5385,22.3855,73.6154,21.7219,63.6923,22.514,53.7692,21.2531,43.8462,22.3574,33.9231,22,24" style="stroke: #000000; stroke-width: 2.0;"/><text fill="#000000" font-family="BasicHand" font-size="20" font-weight="bold" lengthAdjust="spacingAndGlyphs" textLength="35" x="351.5" y="46.0098">caade</text><!--cluster Cloud--><polygon fill="#EEEEEE" filter="url(#fzoq8kildisoy)" points="67,156,67,156.5446,77,155.8979,87,155.3588,97,156.1913,107,155.6469,117,156.1183,127,155.9984,137,155.6005,147,156.3487,157,155.4483,167,155.6712,177,156.6239,187,155.937,197,156.3984,207,155.827,217,155.6326,227,156.2979,237,156.6756,247,155.4928,257,156.3309,267,155.2544,277,155.4022,287,156.0719,297,156.3745,307,156.104,317,156.6903,327,156.4898,337,155.9094,347,156.7281,357,156.6359,367,155.5847,377,155.7237,387,155.3449,397,156.2245,407,156.4456,417,155.788,427,155.5063,437,156.5138,447,155.2796,457,156.2557,467,155.7997,477,156.2926,487,155.3543,497,156.4875,507,156.3992,517,156.697,527,155.5917,537,155.362,547,156.627,557,155.5026,567,156.5132,577,155.535,587,156.0259,597,156.5013,607,155.4241,617,156.4153,627,156.1164,637,156,636.5133,156,636.9989,166,636.9313,176,636.5085,186,637.683,196,637.2812,206,636.6715,216,636.3663,226,637.2553,236,636.5369,246,636.6983,256,636.3778,266,637.0316,276,636.4082,286,637,296,637,296.7488,627,295.8656,617,296.6607,607,295.3994,597,296.6557,587,295.9831,577,296.3282,567,296.3871,557,296.1464,547,296.0848,537,295.2701,527,295.5914,517,296.7023,507,296.3204,497,296.3503,487,296.2588,477,295.3893,467,296.3029,457,296.7118,447,295.7091,437,295.5039,427,295.8218,417,295.7296,407,296.3703,397,296.0139,387,296.5247,377,296.6713,367,295.4809,357,296.6106,347,295.771,337,296.0947,327,295.2688,317,296.2312,307,295.9675,297,295.5965,287,296.1263,277,296.1562,267,296.6358,257,295.5556,247,296.5893,237,295.7307,227,296.2189,217,296.5063,207,296.2909,197,295.9143,187,296.2346,177,296.2106,167,295.509,157,296.7132,147,296.2964,137,295.8982,127,295.4438,117,295.6105,107,296.277,97,295.9836,87,295.4652,77,296.3649,67,296,66.9612,296,66.8728,286,67.2467,276,66.5181,266,66.9448,256,66.7224,246,66.4587,236,66.6112,226,67.264,216,67.2202,206,66.529,196,67.4857,186,66.8046,176,67.6153,166,67,156" style="stroke: #000000; stroke-width: 2.0;"/><text fill="#000000" font-family="BasicHand" font-size="20" font-weight="bold" lengthAdjust="spacingAndGlyphs" textLength="35" x="334.5" y="178.0098">Cloud</text><polygon fill="#DAA520" filter="url(#fzoq8kildisoy)" points="44.5,66,44.5,65.8909,54.6667,66.1127,64.8333,66.4281,75,65.337,85.1667,66.6292,95.3333,66.1734,105.5,66,105.4679,66,105.107,75.4308,105.0055,84.8616,105.5911,94.2924,105.797,103.7232,104.968,113.154,105.4871,122.5848,105.5,132.0156,105.5,132.4129,95.3333,132.0549,85.1667,132.6368,75,132.6495,64.8333,132.715,54.6667,132.7157,44.5,132.0156,43.8924,132.0156,43.9966,122.5848,44.1083,113.154,45.0198,103.7232,45.0208,94.2924,45.0642,84.8616,44.2713,75.4308,44.5,66" style="stroke: #000000; stroke-width: 2.0;"/><text fill="#000000" font-family="BasicHand" font-size="20" font-weight="bold" lengthAdjust="spacingAndGlyphs" textLength="41" x="54.5" y="88.0098">Portal</text><polygon fill="#AAFFFF" filter="url(#fzoq8kildisoy)" points="414.5,66,414.5,65.7154,423.9,65.2976,433.3,65.7545,442.7,65.6548,452.1,66.4553,461.5,66,461.3631,66,461.9838,75.4308,461.916,84.8616,461.9334,94.2924,461.7105,103.7232,460.9632,113.154,461.6054,122.5848,461.5,132.0156,461.5,132.7618,452.1,131.6464,442.7,132.0807,433.3,132.0601,423.9,132.4639,414.5,132.0156,413.9804,132.0156,414.8749,122.5848,414.0319,113.154,414.1606,103.7232,414.7459,94.2924,413.8938,84.8616,414.5397,75.4308,414.5,66" style="stroke: #000000; stroke-width: 2.0;"/><text fill="#000000" font-family="BasicHand" font-size="20" font-weight="bold" lengthAdjust="spacingAndGlyphs" textLength="27" x="424.5" y="88.0098">CICD</text><polygon fill="#FFFFAA" filter="url(#fzoq8kildisoy)" points="518,458,518,458.4329,527.7143,457.9318,537.4286,458.2844,547.1429,458.2769,556.8571,457.7148,566.5714,457.2985,576.2857,457.561,586,458,585.4104,458,585.7745,467.4308,586.4332,476.8616,585.7068,486.2924,585.3586,495.7232,585.7147,505.154,586.5466,514.5848,586,524.0156,586,524.3818,576.2857,523.9051,566.5714,523.3899,556.8571,523.7637,547.1429,523.5148,537.4286,524.3016,527.7143,523.3871,518,524.0156,517.8682,524.0156,518.704,514.5848,518.0667,505.154,517.8403,495.7232,518.1652,486.2924,517.3118,476.8616,518.6858,467.4308,518,458" style="stroke: #000000; stroke-width: 2.0;"/><text fill="#000000" font-family="BasicHand" font-size="20" font-weight="bold" lengthAdjust="spacingAndGlyphs" textLength="48" x="528" y="480.0098">Storage</text><polygon fill="#AAFFAA" filter="url(#fzoq8kildisoy)" points="403.5,332,403.5,332.0348,413.3571,332.4734,423.2143,331.3318,433.0714,331.2666,442.9286,331.4273,452.7857,332.0254,462.6429,332.3778,472.5,332,472.767,332,472.2084,341.4308,472.3076,350.8616,471.8404,360.2924,472.5113,369.7232,472.7007,379.154,472.3898,388.5848,472.5,398.0156,472.5,397.2918,462.6429,397.7877,452.7857,397.6547,442.9286,397.7175,433.0714,397.7901,423.2143,398.5455,413.3571,398.5453,403.5,398.0156,403.7186,398.0156,402.9281,388.5848,403.6918,379.154,403.8958,369.7232,402.9533,360.2924,402.9762,350.8616,403.403,341.4308,403.5,332" style="stroke: #000000; stroke-width: 2.0;"/><text fill="#000000" font-family="BasicHand" font-size="20" font-weight="bold" lengthAdjust="spacingAndGlyphs" textLength="49" x="413.5" y="354.0098">Registry</text><polygon fill="#CCCCCC" filter="url(#fzoq8kildisoy)" points="515,206,515,205.6372,524.8,205.5539,534.6,206.7122,544.4,206.6427,554.2,205.4788,564,206.1409,573.8,206.3484,583.6,206.5553,593.4,206.5605,603.2,206.3268,613,206,613.7064,206,613.4335,215.4308,613.6261,224.8616,613.109,234.2924,612.8601,243.7232,612.933,253.154,613.5007,262.5848,613,272.0156,613,272.5475,603.2,272.2086,593.4,271.9863,583.6,271.623,573.8,272.1914,564,271.7564,554.2,272.3465,544.4,272.6804,534.6,272.1547,524.8,272.7019,515,272.0156,514.278,272.0156,514.4212,262.5848,515.7468,253.154,515.437,243.7232,514.4553,234.2924,514.8293,224.8616,514.7363,215.4308,515,206" style="stroke: #000000; stroke-width: 2.0;"/><text fill="#000000" font-family="BasicHand" font-size="20" font-weight="bold" lengthAdjust="spacingAndGlyphs" textLength="78" x="525" y="228.0098">Local Cloud</text><polygon fill="#CCCCCC" filter="url(#fzoq8kildisoy)" points="396,206,396,205.3671,406.5,206.0309,417,205.4379,427.5,205.6414,438,206.0276,448.5,206.4363,459,205.978,469.5,206.0224,480,206,479.934,206,480.132,215.4308,480.1522,224.8616,480.5635,234.2924,479.4199,243.7232,480.1276,253.154,479.4927,262.5848,480,272.0156,480,271.9102,469.5,272.5223,459,271.4911,448.5,272.3542,438,271.7883,427.5,272.2903,417,271.6722,406.5,272.0169,396,272.0156,395.4994,272.0156,396.34,262.5848,396.6792,253.154,396.5232,243.7232,396.6386,234.2924,395.7312,224.8616,395.8117,215.4308,396,206" style="stroke: #000000; stroke-width: 2.0;"/><text fill="#000000" font-family="BasicHand" font-size="20" font-weight="bold" lengthAdjust="spacingAndGlyphs" textLength="64" x="406" y="228.0098">Dev Cloud</text><polygon fill="#CCCCCC" filter="url(#fzoq8kildisoy)" points="271,206,271,206.1105,281,206.7414,291,206.7354,301,206.1819,311,205.316,321,206.3837,331,206.6314,341,206.4817,351,205.8771,361,206,361.3683,206,361.6571,215.4308,361.7329,224.8616,361.2664,234.2924,360.4473,243.7232,361.0629,253.154,361.4831,262.5848,361,272.0156,361,272.5126,351,272.3931,341,272.7054,331,271.4392,321,272.0513,311,271.542,301,271.6861,291,271.7554,281,271.8302,271,272.0156,271.1127,272.0156,271.0961,262.5848,270.5364,253.154,271.301,243.7232,270.4763,234.2924,270.8065,224.8616,270.4016,215.4308,271,206" style="stroke: #000000; stroke-width: 2.0;"/><text fill="#000000" font-family="BasicHand" font-size="20" font-weight="bold" lengthAdjust="spacingAndGlyphs" textLength="70" x="281" y="228.0098">Test Cloud</text><polygon fill="#CCCCCC" filter="url(#fzoq8kildisoy)" points="110,206,110,206.381,119.6923,206.0441,129.3846,205.8606,139.0769,205.6124,148.7692,205.9318,158.4615,205.3762,168.1538,206.7196,177.8462,205.6161,187.5385,205.9161,197.2308,206.3533,206.9231,206.227,216.6154,205.7608,226.3077,206.1055,236,206,236.1929,206,236.6011,215.4308,236.2903,224.8616,235.6507,234.2924,235.5638,243.7232,236.367,253.154,236.3636,262.5848,236,272.0156,236,272.6688,226.3077,271.6132,216.6154,271.455,206.9231,271.3215,197.2308,271.6697,187.5385,271.6058,177.8462,271.953,168.1538,271.4646,158.4615,272.0668,148.7692,272.6342,139.0769,271.2675,129.3846,272.291,119.6923,271.3902,110,272.0156,110.6966,272.0156,110.412,262.5848,110.6331,253.154,110.5989,243.7232,109.9369,234.2924,109.8941,224.8616,109.5526,215.4308,110,206" style="stroke: #000000; stroke-width: 2.0;"/><text fill="#000000" font-family="BasicHand" font-size="20" font-weight="bold" lengthAdjust="spacingAndGlyphs" textLength="106" x="120" y="228.0098">Production Cloud</text><!--link Portal to CICD--><path d="M105.8408,99 L105.8408,99.33 L115.7918,98.3149 L125.7427,99.9303 L135.6937,98.5447 L145.6447,99.6007 L155.5957,99.3396 L165.5466,98.6886 L175.4976,98.7802 L185.4486,98.1299 L195.3996,98.5514 L205.3505,99.8923 L215.3015,98.5686 L225.2525,99.3869 L235.2035,98.06 L245.1544,98.8225 L255.1054,98.7613 L265.0564,99.2533 L275.0074,98.922 L284.9583,99.51 L294.9093,99.0674 L304.8603,98.4227 L314.8113,99.8176 L324.7622,99.3483 L334.7132,99.6787 L344.6642,99.5483 L354.6152,98.446 L364.5661,99.469 L374.5171,99.7748 L384.4681,99.4421 L394.4191,98.3699 L404.37,99.2254 L414.321,99 " fill="none" style="stroke: #A80036; stroke-width: 1.0;"/><!--link Portal to Registry--><path d="M59.9013,132.103 L59.635,131.9959 L59.0421,133.8542 L58.5354,135.7472 L57.8879,137.5835 L56.864,139.2684 L56.2714,141.1268 L56.4124,141.1795 L55.7875,143.1832 L55.0069,145.1287 L54.1191,147.0342 L53.4631,149.0263 L52.6036,150.9424 L52.6385,150.9543 L51.9737,153.0731 L51.426,155.232 L50.5339,157.273 L49.6107,159.3033 L49.0079,161.4434 L48.878,161.4034 L48.2684,163.6419 L47.5086,165.8342 L46.6626,167.9999 L46.2228,170.2908 L45.5948,172.5236 L45.9,172.6061 L44.7833,174.7837 L44.3468,177.145 L44.032,179.5392 L42.9844,181.7354 L42.4743,184.0769 L42.5931,184.104 L41.631,186.3926 L41.2685,188.8178 L41.1376,191.2959 L40.3763,193.6302 L39.7569,195.997 L39.6314,195.9742 L39.0821,198.3907 L38.9271,200.8786 L38.1924,203.2615 L37.7454,205.6966 L37.5526,208.1776 L37.6116,208.1851 L36.9659,210.6099 L36.6114,213.0719 L36.5262,215.5685 L36.414,218.0617 L35.9718,220.5125 L36.2764,220.5333 L36.1319,223.0116 L35.6857,225.4693 L35.3312,227.9333 L35.2942,230.4189 L35.1248,232.8955 L34.8921,232.8955 L35.1483,235.3605 L35.0907,237.8255 L34.9605,240.2904 L35.3832,242.7555 L35.1217,245.2204 L35.0204,245.2125 L34.9911,247.6274 L35.2206,250.0626 L36.0137,252.5419 L35.9893,254.9572 L36.0728,257.3809 L35.8209,257.3383 L36.3851,259.7435 L36.9722,262.1527 L37.365,264.529 L37.9395,266.936 L38.0883,269.2709 L37.8796,269.213 L39.0099,271.6521 L39.6842,273.9647 L39.8863,276.1465 L40.7655,278.516 L41.2786,280.784 L41.5442,280.8917 L42.4634,283.1075 L43.069,285.1961 L44.0957,287.4555 L45.1539,289.7278 L45.7538,291.814 L45.711,291.79 L46.6609,293.7521 L48.1494,296.017 L49.1684,298.0179 L50.3631,300.1177 L51.6242,302.2548 L51.6808,302.2977 L52.91,304.0605 L54.4807,306.0819 L55.8457,307.9475 L57.4407,309.9872 L59,312 L59.1633,312.186 L60.8381,313.5574 L63.086,315.5815 L65.1777,317.4278 L67.2114,319.208 L69.2795,321.0272 L69.1427,320.7895 L72.1046,322.7223 L74.68,323.9833 L77.6905,326.0005 L80.3568,327.4196 L83.1069,328.9842 L83.0059,328.7383 L86.5792,330.582 L89.8222,331.6209 L93.3347,333.3166 L96.7028,334.6606 L100.0431,335.9366 L99.9984,335.8006 L101.887,336.392 L103.8054,337.074 L105.8085,338.0138 L107.688,338.5775 L109.5397,339.0565 L109.5075,338.944 L111.5391,339.5569 L113.5219,339.9995 L115.6641,340.9987 L117.7019,341.6331 L119.6488,341.9499 L119.6553,341.9759 L121.8048,342.5757 L123.8379,342.7108 L126.0411,343.5245 L128.2463,344.3459 L130.3154,344.625 L130.3112,344.606 L132.5164,344.9687 L134.7878,345.632 L136.9509,345.8042 L139.282,346.7379 L141.4848,347.0898 L141.5197,347.2694 L143.8109,347.5564 L146.073,347.694 L148.4696,348.5227 L150.8147,349.0861 L153.1019,349.3528 L153.0742,349.192 L155.4686,349.562 L157.9231,350.2808 L160.2546,350.2851 L162.737,351.1658 L165.1118,351.422 L165.1277,351.5257 L167.6277,352.1021 L170.096,352.4701 L172.495,352.384 L175.0057,353.0306 L177.4598,353.3056 L177.4348,353.1204 L179.9456,353.3475 L182.5423,354.2112 L185.0252,354.2317 L187.5988,354.9235 L190.0908,355.012 L190.105,355.1309 L192.6721,355.3985 L195.256,355.807 L197.7695,355.6267 L200.3474,355.9844 L202.95,356.5491 L202.9553,356.599 L205.5866,357.1097 L208.1819,357.2791 L210.7458,357.1514 L213.3472,357.3777 L215.9824,357.9254 L216.0065,358.1841 L218.608,358.1206 L221.2586,358.5855 L223.8901,358.8443 L226.5298,359.1917 L229.1332,359.1489 L229.1329,359.145 L231.7765,359.37 L234.4114,359.4887 L237.0804,360.0243 L239.7026,359.9875 L242.3475,360.2279 L242.3695,360.5593 L247.6416,360.7937 L252.8975,360.7851 L258.1739,361.0853 L263.4728,361.7223 L268.7468,361.985 L268.7346,361.7374 L273.9446,362.2188 L279.1587,362.7857 L284.3565,363.0203 L289.5341,362.8424 L294.7411,363.2625 L294.7482,363.471 L299.7617,363.1611 L304.8025,363.6488 L309.8237,363.5661 L314.8678,364.1483 L319.8911,364.1259 L319.8945,364.2802 L324.666,364.3018 L329.4447,364.6504 L334.2074,364.2628 L338.9838,364.5091 L343.7578,364.6408 L343.755,364.3768 L348.1898,364.9953 L352.6142,364.6211 L357.047,365.0483 L361.4737,364.8964 L365.9018,364.8729 L365.9016,364.6805 L369.8984,365.0812 L373.8945,364.7243 L377.8911,364.9807 L381.8876,364.9858 L385.8839,364.8878 L385.8845,364.9556 L389.3595,364.7795 L392.8384,365.0897 L396.3105,364.5421 L399.7896,364.8818 L403.265,364.751 " fill="none" style="stroke: #A80036; stroke-width: 1.0;"/><!--link Portal to Cloud--><path d="M75,132.007 L75.3217,132.007 L75.0063,135.2055 L75.0079,138.4039 L75.2016,141.6024 L74.7371,144.8009 L75,147.9994 L74.8709,147.9994 L75.1655,148.8449 L75.1383,149.6905 L74.8991,150.5361 L74.7092,151.3816 L75,152.2272 L74.7614,152.2272 L74.8499,152.6547 L74.7208,153.0822 L74.8265,153.5097 L75.3188,153.9373 L75,154.3648 L75.0503,154.3648 L75.0033,154.5796 L75.0862,154.7943 L75.2617,155.0091 L74.7793,155.2239 L75,155.4386 L75.0317,155.4386 L74.904,155.5463 L74.7794,155.6539 L75.1776,155.7615 L75.0077,155.8691 L75,155.9767 " fill="none" style="stroke: #A80036; stroke-width: 1.0;"/><!--link CICD to Registry--><path d="M461.818,101.364 L461.8338,101.5671 L465.7513,101.6819 L469.6805,101.9481 L473.6063,102.1699 L477.5285,102.3468 L481.4796,102.8938 L481.5087,103.1923 L486.0865,103.1653 L490.7081,103.5871 L495.3684,104.4062 L500.0016,104.9471 L504.6017,105.149 L504.5792,104.9546 L507.0442,105.1579 L509.5473,105.6908 L512.0274,106.0244 L514.4626,105.9705 L516.9749,106.5826 L517.0061,106.8206 L519.5091,106.9372 L522.0134,107.063 L524.5892,107.7357 L527.1331,108.1641 L529.6306,108.2383 L529.6096,108.0967 L532.1328,108.3024 L534.7318,109.0186 L537.2712,109.334 L539.8515,109.9241 L542.3747,110.1297 L542.3681,110.0911 L544.8616,110.3179 L547.4367,111.026 L549.9532,111.3888 L552.4405,111.5789 L555.0128,112.2704 L555.0558,112.4913 L557.5282,112.9968 L559.9847,113.4206 L562.3769,113.5142 L564.8376,113.9595 L567.3507,114.6739 L567.3521,114.6801 L569.7861,115.5042 L572.1099,115.8418 L574.4839,116.4012 L576.8867,117.0877 L579.1944,117.3539 L579.1777,117.2913 L581.498,118.2203 L583.6578,118.547 L585.807,118.8336 L588.0515,119.4783 L590.3495,120.3239 L590.3272,120.2539 L592.3951,120.9507 L594.5149,121.8104 L596.5993,122.559 L598.4878,122.693 L600.6219,123.5975 L600.5622,123.4615 L604.034,125.0731 L607.5787,126.8508 L610.9531,128.2403 L614.2552,129.465 L617.7417,131.11 L617.5777,130.9024 L620.117,133.0446 L622.1365,134.5286 L624.5113,136.4625 L626.7174,138.1828 L629,140 L628.7569,139.8139 L630.4341,142.0123 L632.4311,144.4554 L633.9606,146.5406 L635.6769,148.7689 L637.4526,151.0426 L637.4272,151.0256 L639.026,153.2985 L640.2453,155.3174 L641.8107,157.5679 L643.1832,159.6894 L644.7416,161.9352 L644.7305,161.9289 L645.752,163.9653 L646.9926,166.1266 L648.5422,168.4638 L649.5555,170.4956 L650.8748,172.7017 L650.7594,172.6477 L652.0234,174.9053 L652.6385,176.8595 L653.593,178.9724 L654.7405,181.1756 L655.8602,183.3657 L655.7913,183.3406 L656.9408,185.5959 L657.7035,187.7107 L658.0915,189.6893 L658.7561,191.7684 L659.7055,193.9511 L659.7836,193.9712 L660.4916,196.1199 L660.5721,198.1069 L661.5616,200.3282 L662.1846,202.455 L662.4187,204.4816 L662.5162,204.4963 L662.4985,206.5455 L663.3108,208.7202 L663.5146,210.8028 L663.7031,212.8832 L664.0074,214.981 L664.2851,214.9935 L664.1743,217.0827 L663.8769,219.1635 L664.5343,221.2872 L664.6186,223.3852 L664.4795,225.4731 L664.6302,225.4823 L664.3998,227.5777 L664.007,229.6634 L663.7769,231.7589 L664.0544,233.8851 L663.8429,235.9817 L663.8487,235.9827 L663.4377,238.082 L663.1848,240.2073 L662.7569,242.3038 L662.4708,244.4237 L662.1054,246.5305 L661.9644,246.4929 L661.5202,248.648 L661.0578,250.7982 L660.6942,252.9748 L659.652,254.9704 L659.2748,257.1434 L659.0203,257.0502 L658.2266,259.1865 L657.8593,261.4788 L657.0024,263.592 L656.0649,265.6756 L655.359,267.844 L655.1397,267.7427 L654.1643,269.9159 L653.5856,272.2723 L652.1822,274.2478 L651.2042,276.4198 L650.3658,278.6562 L650.5127,278.7376 L648.9344,280.7245 L648.1447,283.1482 L646.6598,285.1869 L645.6786,287.5045 L644.303,289.6038 L644.0592,289.4474 L642.9952,291.9002 L641.3563,293.9843 L640.2567,296.4143 L638.576,298.4715 L637.1785,300.7104 L636.9997,300.581 L635.6094,303.0166 L633.8792,305.2061 L632.2893,307.4972 L630.6688,309.7661 L629,312 L628.9705,311.9668 L626.9894,313.6275 L624.9741,315.2495 L623.3274,317.2878 L621.0463,318.6098 L619.3286,320.5679 L619.4554,320.8051 L616.4032,322.1033 L613.3977,323.4889 L610.654,325.3642 L607.7847,327.0044 L604.7603,328.3547 L604.84,328.5631 L601.1215,329.8305 L597.3083,330.8499 L593.7973,332.6599 L590.1193,334.033 L586.425,335.3635 L586.3936,335.2634 L584.3287,335.8444 L582.2626,336.4212 L580.3505,337.4884 L578.2568,337.9777 L576.1978,338.5773 L576.118,338.2931 L574.0854,339.3116 L571.8703,339.6806 L569.8002,340.5657 L567.6765,341.2598 L565.4526,341.5978 L565.514,341.839 L563.3027,342.4563 L560.9924,342.6839 L558.6974,342.9718 L556.6163,344.1008 L554.3306,344.4254 L554.313,344.3495 L552.1147,345.1922 L549.8061,345.5595 L547.5484,346.1459 L545.2982,346.7648 L542.973,347.0605 L542.9776,347.0822 L540.6672,347.4772 L538.3971,348.0606 L536.0575,348.3189 L533.7923,348.9257 L531.521,349.5036 L531.5833,349.8194 L529.2409,349.9586 L526.9712,350.466 L524.6949,350.9402 L522.4274,351.4589 L520.1159,351.755 L520.1538,351.9682 L515.7485,352.8422 L511.217,353.0061 L506.8279,353.9707 L502.4723,355.124 L498.0113,355.6844 L498.0096,355.6739 L493.9295,356.0795 L489.9083,356.8614 L485.8819,357.6102 L481.8716,358.4619 L477.789,358.852 " fill="none" style="stroke: #A80036; stroke-width: 1.0;"/><polygon fill="#A80036" points="472.713,359.589,472.69,359.5073,474.5889,360.0494,476.5694,360.8821,478.4445,361.3401,480.307,361.7528,482.1944,362.2542,482.1482,362.1923,481.2798,361.5669,480.2425,360.715,479.3666,360.0795,478.6002,359.5907,477.6611,358.8705,477.7463,358.9341,478.2819,357.9221,479.1325,357.1452,479.787,356.222,480.4802,355.3276,481.0448,354.3372,480.9521,354.1901,479.3521,355.3458,477.7074,356.4305,476.131,357.6236,474.2908,358.3981,472.713,359.589" style="stroke: #A80036; stroke-width: 1.0;"/><!--link Local Cloud to Registry--><path d="M535.848,272.283 L535.8695,272.3025 L533.8547,274.0523 L532.3405,276.2581 L530.2682,277.9554 L528.7603,280.1669 L526.9235,282.0788 L527.1264,282.2684 L525.2615,284.3168 L523.3537,286.3251 L521.0885,287.9995 L519.5278,290.3321 L517.4693,292.1996 L517.3468,292.0816 L515.4527,294.1494 L513.67,296.3245 L511.7087,298.3275 L509.5973,300.1858 L507.7424,302.2914 L507.9663,302.5161 L505.8589,304.2983 L503.7919,306.1211 L501.7373,307.9563 L499.8233,309.9326 L498,312 L497.8872,311.8804 L495.943,314.0376 L493.6811,315.8579 L491.7119,317.9885 L489.512,319.8746 L487.4714,321.9295 L487.463,321.9202 L485.1407,323.7222 L483.2128,325.9633 L480.9457,327.8269 L478.6791,329.6909 L476.567,331.727 " fill="none" style="stroke: #A80036; stroke-width: 1.0;"/><polygon fill="#A80036" points="472.56,335.236,472.6336,335.4731,474.3938,334.4991,476.269,333.8958,478.2083,333.499,480.0607,332.8223,481.9665,332.3175,481.9571,332.1753,480.8361,332.2201,479.7144,332.2527,478.5884,332.2205,477.4655,332.2362,476.3221,331.9426,476.3227,331.9426,476.1873,330.7998,476.3125,329.6742,476.3235,328.5411,476.6827,327.4311,476.697,326.2982,476.7998,326.3457,475.6498,327.984,474.9189,329.8162,474.0569,331.5878,473.2308,333.3759,472.56,335.236" style="stroke: #A80036; stroke-width: 1.0;"/><!--link Dev Cloud to Registry--><path d="M438,272.256 L438.3761,272.256 L437.8105,283.1314 L437.3485,294.0068 L437.1592,304.8822 L437.1581,315.7576 L438,326.633 " fill="none" style="stroke: #A80036; stroke-width: 1.0;"/><polygon fill="#A80036" points="438,331.906,437.9215,331.8711,438.6869,330.0557,439.644,328.3256,440.5644,326.5791,441.3411,324.7687,442,322.906,442.1225,323.0285,441.3136,323.8196,440.4407,324.5467,439.6153,325.3213,438.9287,326.2347,438,326.906,437.9595,326.8655,437.0343,325.9403,436.5516,325.4576,435.6205,324.5265,434.8138,323.7198,434,322.906,433.8995,322.8613,434.6299,324.6304,435.684,326.5433,436.4739,328.3389,436.9883,330.0119,438,331.906" style="stroke: #A80036; stroke-width: 1.0;"/><!--link Test Cloud to Registry--><path d="M342.742,272.344 L342.8207,272.4124 L344.4515,274.3096 L346.2718,276.3714 L347.7875,278.1687 L349.315,279.9761 L351.2557,282.1425 L351.4755,282.339 L353.2634,284.3436 L354.6368,285.9778 L356.6509,288.1847 L358.5152,290.2576 L360.2961,292.256 L360.1083,292.0821 L362.0236,294.1424 L363.8871,296.1548 L365.6891,298.1101 L367.7442,300.3 L369.624,302.3275 L369.6247,302.3281 L371.5056,304.2681 L373.2613,306.0868 L375.2933,308.1733 L377.1999,310.1383 L379,312 L378.8339,311.8288 L381.0529,313.9946 L383.0201,315.9009 L385.1842,318.0101 L386.974,319.7334 L389.0296,321.7309 L388.8317,321.5156 L390.9974,323.5203 L393.3936,325.7756 L395.3371,327.5386 L397.2162,329.2315 L399.459,331.32 " fill="none" style="stroke: #A80036; stroke-width: 1.0;"/><polygon fill="#A80036" points="403.307,334.757,403.499,334.8436,402.5102,332.9671,401.8484,331.238,400.7872,329.3288,400.0271,327.5554,399.2591,325.7785,399.3873,325.7857,399.0933,326.8951,399.543,328.0464,399.5785,329.1744,399.5093,330.2965,399.5778,331.4263,399.5699,331.2856,398.4369,331.2881,397.3205,331.5852,396.1875,331.5891,395.0727,331.9141,393.93,331.7451,393.8702,331.5589,395.8051,332.3465,397.7178,333.0651,399.5828,333.6352,401.4146,334.1016,403.307,334.757" style="stroke: #A80036; stroke-width: 1.0;"/><!--link Production Cloud to Registry--><path d="M202.377,272.007 L202.5314,272.1723 L204.5716,274.0426 L206.8498,276.1676 L209.106,278.2692 L211.7354,280.7705 L213.8375,282.707 L213.6302,282.4613 L216.5632,285.076 L218.8854,286.9669 L221.2896,288.9552 L223.982,291.2847 L226.4612,293.3618 L226.3952,293.2725 L229.0367,295.1918 L231.8174,297.2996 L234.683,299.5219 L237.3162,301.4302 L239.9486,303.3374 L239.8198,303.1285 L242.8796,305.2657 L245.4833,306.6631 L248.3627,308.5077 L251.34,310.5113 L254,312 L253.8936,311.7877 L257.6024,313.8528 L261.2507,315.7972 L264.7577,317.4596 L268.4042,319.4002 L271.8534,320.9474 L271.8018,320.8304 L273.7783,321.9256 L275.4458,322.3202 L277.3972,323.3584 L279.289,324.2616 L281.1249,325.0382 L281.0072,324.7493 L282.8928,325.5147 L284.7908,326.3109 L286.7552,327.2699 L288.732,328.2592 L290.5595,328.8823 L290.5892,328.961 L292.5826,329.904 L294.3833,330.3365 L296.2435,330.9266 L298.2588,331.9276 L300.1071,332.4862 L300.0865,332.4273 L302.0789,333.3019 L303.8851,333.6453 L305.9042,334.5959 L307.7046,334.9228 L309.7176,335.8562 L309.7687,336.0127 L311.65,336.5084 L313.6276,337.299 L315.4554,337.631 L317.333,338.1152 L319.3409,338.9986 L319.2473,338.6915 L321.3463,339.8725 L323.2615,340.4499 L325.1396,340.9061 L327.0672,341.5245 L328.9269,341.92 L328.8558,341.6624 L332.7708,343.2219 L336.3823,343.6813 L340.1892,344.8492 L344.0602,346.2491 L347.7866,347.1251 L347.7823,347.1076 L351.3864,347.9137 L354.9827,348.6878 L358.65,349.7545 L362.3028,350.761 L365.896,351.5227 L365.9389,351.7226 L369.3497,352.5396 L372.6392,352.792 L376.0785,353.7422 L379.4884,354.5554 L382.8544,355.1639 L382.8267,355.0184 L385.9795,355.9806 L389.0467,356.4942 L392.1486,357.1889 L395.2339,357.7971 L398.261,358.1 " fill="none" style="stroke: #A80036; stroke-width: 1.0;"/><polygon fill="#A80036" points="403.339,358.993,403.2923,358.9236,401.6702,357.8421,400.1228,356.8717,398.3454,355.5594,396.9071,354.7512,395.1675,353.4951,395.2503,353.5531,395.9422,354.5093,396.6177,355.454,397.2956,356.4005,397.7264,357.1737,398.4145,358.1273,398.4089,358.1192,397.4792,358.7639,396.6847,359.6016,395.7712,360.2694,394.834,360.9034,393.7823,361.3742,393.7258,361.1471,395.6763,360.8284,397.5625,360.2513,399.5408,360.0438,401.4107,359.4011,403.339,358.993" style="stroke: #A80036; stroke-width: 1.0;"/><!--link Registry to Storage--><path d="M467.655,398.256 L467.8369,398.4232 L474.1845,405.4131 L481.3111,413.1191 L488.0976,420.5124 L494.6163,427.6596 L502.2315,435.8148 L508.613,442.8358 L515.7385,450.5409 L522.494,457.9057 " fill="none" style="stroke: #A80036; stroke-width: 1.0;"/><!--link CICD to Storage--><path d="M461.856,100.709 L461.851,100.6085 L466.2498,100.8525 L470.6487,101.0982 L475.0548,101.4919 L479.4396,101.452 L483.8431,101.7918 L483.856,101.9957 L486.3842,101.8281 L488.925,101.8607 L491.4984,102.4099 L494.0431,102.5034 L496.5877,102.5956 L496.5677,102.3252 L499.2863,102.5078 L502.0508,103.3091 L504.7633,103.409 L507.4796,103.5613 L510.1879,103.6046 L510.2122,103.8838 L513.0391,103.9303 L515.8656,103.9718 L518.6978,104.08 L521.5754,104.7094 L524.4098,104.8415 L524.4105,104.8483 L527.3577,105.3937 L530.284,105.7347 L533.1926,105.9005 L536.1071,106.1251 L539.0195,106.3292 L539.0391,106.4932 L541.9365,106.382 L544.9101,106.9084 L547.8628,107.2607 L550.8133,107.5941 L553.7833,108.0904 L553.7417,107.794 L556.6848,108.2506 L559.671,109.015 L562.6214,109.523 L565.5318,109.7467 L568.4671,110.1478 L568.4634,110.1251 L571.3722,110.811 L574.2188,111.1199 L577.1426,111.8967 L579.9191,111.7819 L582.8373,112.5241 L582.9007,112.8466 L585.5859,112.987 L588.3695,113.6275 L591.1814,114.4124 L593.8996,114.7204 L596.6598,115.2421 L596.7203,115.4981 L599.2907,115.9543 L601.8045,116.1713 L604.5203,117.2429 L607.1347,117.8858 L609.701,118.3246 L609.6335,118.0907 L612.0928,118.9723 L614.4466,119.4881 L616.8918,120.321 L619.3274,121.1204 L621.7268,121.7943 L621.8063,122.0152 L623.9115,122.6518 L625.9409,123.078 L628.2134,124.1794 L630.3631,124.9397 L632.5035,125.674 L632.3926,125.4351 L634.2748,126.348 L636.1989,127.3515 L638.013,128.1176 L640.0686,129.4044 L641.7971,129.9863 L641.7648,129.9437 L644.32,131.8338 L646.9249,133.7895 L649.8413,136.1559 L652.3803,138.0247 L655,140 L655.2558,140.1942 L656.1652,141.6599 L657.6625,143.5719 L659.3189,145.6046 L660.7792,147.4885 L661.945,149.1489 L662.1903,149.302 L663.2397,151.1129 L664.5862,153.1093 L665.3082,154.7157 L666.7056,156.7439 L667.8584,158.6193 L668.0302,158.706 L668.865,160.5832 L669.6486,162.4347 L670.8037,164.4735 L671.5442,166.3033 L672.7832,168.3844 L672.8731,168.42 L673.2812,170.2727 L674.2849,172.3617 L675.3994,174.4945 L676.2183,176.5102 L676.7623,178.4168 L676.9167,178.463 L677.5984,180.5374 L678.2364,182.5988 L678.5593,184.5658 L678.9265,186.546 L679.8388,188.6895 L679.9111,188.7048 L679.9636,190.7193 L680.5443,192.8455 L680.9426,194.9332 L681.5059,197.0557 L682.0557,199.1754 L682.2136,199.1961 L682.4525,201.3251 L682.5303,203.433 L682.6655,205.5484 L682.9129,207.6785 L683.4559,209.8474 L683.4248,209.8456 L683.5887,212.014 L683.9399,214.1933 L684.141,216.3639 L684.2582,218.5296 L684.0825,220.6784 L684.0766,220.6783 L684.3116,222.8733 L684.278,225.0657 L683.9807,227.2557 L684.0253,229.4489 L683.9784,231.6412 L684.0835,231.6487 L683.6687,233.8439 L683.9805,236.091 L683.7937,238.3025 L683.5914,240.5129 L683.1866,242.7088 L683.4306,242.7402 L683.1567,244.971 L682.8043,247.1916 L682.1312,249.3709 L682.0363,251.6248 L681.7502,253.854 L681.9944,253.8984 L681.332,256.0912 L681.0747,258.3577 L680.5577,260.5769 L680.4204,262.8653 L679.7121,265.0497 L679.417,264.9814 L678.9961,267.248 L678.6562,269.5334 L678.0008,271.7457 L677.8022,274.0638 L677.1154,276.2688 L676.8412,276.1928 L676.7451,278.5819 L675.5839,280.6755 L675.4697,283.0597 L674.9168,285.3221 L674.0029,287.4843 L674.272,287.5705 L673.4974,289.789 L672.3218,291.879 L671.8854,294.2058 L671.4021,296.5177 L670.4178,298.669 L670.1964,298.5891 L669.8341,300.9734 L669.0525,303.2065 L667.701,305.2339 L667.169,307.557 L666.403,309.7957 L666.2909,309.751 L665.4551,311.9771 L664.4369,314.1305 L663.8973,316.4746 L662.8539,318.6179 L662.0015,320.8374 L662.0239,320.8471 L661.2832,323.1235 L660.3132,325.3003 L659.1008,327.3719 L658.1737,329.5673 L657.2563,331.767 L657.2977,331.7863 L656.0451,333.8305 L655.4483,336.1815 L654.2581,338.2549 L653.1323,340.3584 L652.2104,342.5573 L652.3226,342.6133 L651.2648,344.7396 L650.1602,346.8425 L649.1339,348.9845 L647.8252,350.9854 L646.9067,353.1812 L646.8719,353.1628 L645.8023,355.2669 L644.7845,357.3985 L643.462,359.3688 L642.6387,361.6032 L641.3884,363.6117 L641.4333,363.6368 L640.5382,365.8141 L638.8255,367.5358 L637.89,369.6907 L636.8089,371.7644 L635.6983,373.8216 L635.7805,373.8696 L634.3988,375.7348 L633.0982,377.6473 L632.2057,379.7982 L631.2619,381.9191 L629.8795,383.7839 L630.1453,383.9458 L628.6455,385.689 L627.6452,387.7365 L626.2051,389.516 L625.0731,391.4833 L623.975,393.4713 L623.8435,393.3879 L622.6022,395.2322 L621.4905,397.1586 L620.6441,399.253 L619.3638,401.0726 L618.0278,402.8568 L617.8188,402.7196 L617.0616,404.8147 L615.6868,406.5043 L614.6617,408.4234 L613.3638,410.1635 L612.0808,411.9133 L612.0711,411.9067 L610.8675,413.6313 L609.5505,415.2789 L608.6723,417.2243 L607.5293,418.99 L606.177,420.6136 L606.2733,420.681 L605.2617,422.4506 L603.7939,423.9012 L602.9418,425.7824 L601.6337,427.3447 L600.3596,428.9307 L600.4444,428.9925 L597.8535,431.8127 L595.7205,434.9665 L593.8771,438.3313 L591.5611,441.3518 L589.1553,444.3068 L589.0614,444.2349 L587.344,447.2073 L585.0991,449.7759 L582.9779,452.4393 L580.9301,455.1587 L578.812,457.8245 " fill="none" style="stroke: #A80036; stroke-width: 1.0;"/><!--link CICD to Local Cloud--><path d="M461.501,112.724 L461.4173,112.5905 L463.2176,113.6885 L465.2676,115.1849 L467.0407,116.2396 L468.998,117.588 L470.66,118.4654 L470.6046,118.3852 L472.72,120.0117 L474.418,121.0333 L476.25,122.249 L478.334,123.83 L480.1382,125.0056 L479.9445,124.7564 L481.8037,126.2031 L483.8556,127.8976 L485.543,129.1233 L487.579,130.7973 L489.4227,132.224 L489.5328,132.3456 L491.1892,133.8355 L492.6842,135.1476 L494.5605,136.8802 L496.3711,138.5403 L498,140 L497.8659,139.8723 L499.4967,141.5665 L500.7935,142.9427 L502.2096,144.4324 L503.8697,146.1545 L505.1917,147.5546 L504.988,147.3785 L506.3792,148.9863 L507.8459,150.6595 L509.2988,152.3207 L510.7751,154.0022 L512.1324,155.5808 L511.9084,155.4023 L513.5058,157.2855 L514.827,158.9486 L516.1823,160.639 L517.3423,162.1737 L518.788,163.936 L518.8191,163.9591 L519.9066,165.534 L521.5342,167.5096 L522.8283,169.2378 L523.7305,170.6753 L525.1243,172.4775 L525.0378,172.4173 L526.5897,174.3819 L527.6287,175.9892 L528.4663,177.4561 L529.6652,179.1748 L531.107,181.0627 L530.8591,180.8993 L532.126,182.694 L533.5834,184.6144 L534.4028,186.1141 L535.3187,187.6774 L536.702,189.5489 L536.6526,189.5186 L538.9065,192.9091 L540.9365,196.162 L542.915,199.3833 L544.4718,202.3457 L546.592,205.654 " fill="none" style="stroke: #A80036; stroke-width: 1.0; stroke-dasharray: 7.0,7.0;"/><!--link CICD to Dev Cloud--><path d="M438,132.007 L438.1809,132.007 L437.7143,142.533 L437.0809,153.059 L438.2355,163.585 L437.8299,174.111 L438.3808,184.637 L437.6162,195.163 L438,205.689 " fill="none" style="stroke: #A80036; stroke-width: 1.0; stroke-dasharray: 7.0,7.0;"/><!--link CICD to Test Cloud--><path d="M414.231,113.05 L414.1145,112.8679 L412.3307,114.0003 L410.6658,115.3185 L408.725,116.2054 L407.1394,117.6475 L405.3319,118.7428 L405.1977,118.5527 L403.4522,119.9688 L401.5867,121.2148 L399.6457,122.3538 L397.9128,123.7879 L396.1696,125.2073 L396.3465,125.4292 L394.3912,126.6437 L392.6395,128.1138 L390.974,129.692 L388.8824,130.7355 L387.2303,132.3305 L387.198,132.2958 L385.5915,133.8722 L383.8791,135.335 L382.0698,136.6936 L380.6704,138.4922 L379,140 L378.774,139.7914 L377.5922,141.4994 L376.1905,143.0044 L374.9453,144.6538 L373.5244,146.1411 L372.0263,147.5572 L371.808,147.3749 L370.4694,148.9825 L369.1746,150.6266 L368.0686,152.4284 L366.8342,154.1231 L365.3216,155.5853 L365.4627,155.6934 L363.8633,157.1208 L362.8472,158.9954 L361.2353,160.4132 L360.0583,162.1644 L358.9152,163.9416 L358.7535,163.8265 L357.8734,165.7738 L356.2939,167.2233 L355.2401,169.0469 L353.9741,170.7195 L352.8368,172.4838 L353.0841,172.6486 L351.8938,174.335 L350.3827,175.8076 L349.2292,177.5185 L348.4501,179.4788 L347.1155,181.0691 L347.2485,181.1527 L345.835,182.632 L344.8656,184.3905 L343.9569,186.1871 L343.0555,187.9884 L341.7811,189.5551 L341.5064,189.3949 L340.0681,192.8723 L338.0092,195.9877 L336.3911,199.3601 L334.3445,202.4827 L332.39,205.659 " fill="none" style="stroke: #A80036; stroke-width: 1.0; stroke-dasharray: 7.0,7.0;"/><!--link CICD to Production Cloud--><path d="M414.413,100.299 L414.4036,100.1294 L411.3291,100.3007 L408.2705,100.7618 L405.1858,100.7478 L402.0974,100.6685 L399.0399,101.1485 L399.0128,100.8412 L395.4299,101.4339 L391.7986,101.4759 L388.226,102.1856 L384.5937,102.217 L381.0043,102.7363 L380.9704,102.4437 L379.0759,103.251 L377.0616,103.0271 L375.1532,103.7147 L373.1778,103.8253 L371.1953,103.8754 L371.2263,104.1004 L369.1483,104.1431 L367.1416,104.7048 L365.0328,104.5233 L362.9968,104.871 L360.9693,105.281 L360.964,105.2483 L358.8912,105.832 L356.7398,105.9274 L354.6334,106.3024 L352.4831,106.4044 L350.4091,106.9803 L350.4218,107.0485 L348.2757,107.5392 L346.0891,107.8135 L343.9384,108.2795 L341.7028,108.2914 L339.5975,109.0008 L339.609,109.054 L337.463,109.7597 L335.2019,109.9316 L332.9722,110.2493 L330.8746,111.1791 L328.6175,111.3696 L328.6438,111.4757 L326.3577,111.7303 L324.1427,112.2717 L322.0253,113.2067 L319.7684,113.5791 L317.5518,114.1141 L317.5937,114.2611 L315.3025,114.6181 L313.1951,115.6213 L310.882,115.9014 L308.7003,116.6433 L306.4835,117.2617 L306.5728,117.5361 L304.2509,117.87 L302.1591,118.9108 L299.9703,119.6536 L297.7599,120.3299 L295.4952,120.8395 L295.5602,121.0141 L293.3302,121.647 L291.0809,122.2281 L289.1086,123.5522 L286.7919,123.9526 L284.6698,124.875 L284.5918,124.6924 L282.4411,125.5151 L280.3781,126.5431 L278.2865,127.504 L276.3037,128.7194 L274.0903,129.3953 L274.0865,129.3876 L272.0003,130.3208 L269.8771,131.1785 L267.9645,132.4654 L265.8485,133.3377 L263.8394,134.4279 L263.7516,134.2729 L261.8322,135.473 L259.7551,136.3944 L258.0607,137.9919 L255.956,138.8646 L254,140 L253.9832,139.9752 L252.1165,141.3845 L249.9883,142.4072 L248.0829,143.7593 L246.245,145.2113 L244.3261,146.5434 L244.2926,146.5019 L242.3021,147.8043 L240.7725,149.6772 L238.8754,151.0953 L237.1142,152.6815 L235.1202,153.9795 L235.1839,154.0478 L233.4513,155.6812 L231.7639,157.363 L229.7321,158.6757 L228.3351,160.6688 L226.4155,162.1018 L226.2441,161.939 L224.6844,163.73 L222.9317,165.3376 L221.6242,167.3682 L219.8585,168.9636 L218.245,170.7035 L218.2533,170.7106 L216.9443,172.6669 L215.2797,174.3184 L213.5857,175.9449 L212.3219,177.9398 L210.6417,179.578 L210.7326,179.6493 L209.2726,181.3909 L207.6179,182.9801 L206.633,185.0938 L205.0274,186.7214 L203.6385,188.5187 L203.4779,188.4025 L202.3689,190.2819 L200.9797,191.9586 L199.9473,193.8935 L198.7459,195.706 L197.2686,197.3189 L197.1486,197.2379 L195.9255,198.8729 L195.0241,200.7251 L194.1049,202.5651 L192.643,204.039 L191.565,205.772 " fill="none" style="stroke: #A80036; stroke-width: 1.0; stroke-dasharray: 7.0,7.0;"/><!--
@startuml

skinparam packageStyle rect
skinparam handwritten true
skinparam defaultFontName BasicHand
skinparam defaultFontSize 20

package caade {
    package Portal goldenrod { }
    package "CICD" #aaffff { }
    package "Storage" #ffffaa { }
    package "Registry" #aaffaa { }
    package "Cloud" #eee {
        package "Local Cloud" #ccc { }
        package "Dev Cloud" #ccc { }
        package "Test Cloud" #ccc { }
        package "Production Cloud" #ccc { }
    }
}

Portal - CICD
Portal - Registry
Portal - Cloud

CICD -> Registry
"Local Cloud" - -> Registry
"Dev Cloud" - -> Registry
"Test Cloud" - -> Registry
"Production Cloud" - -> Registry
Registry - - Storage
CICD - - Storage
CICD .. "Local Cloud"
CICD .. "Dev Cloud"
CICD .. "Test Cloud"
CICD .. "Production Cloud"

@enduml

PlantUML version 1.2017.15(Mon Jul 03 09:45:34 PDT 2017)
(GPL source distribution)
Java Runtime: Java(TM) SE Runtime Environment
JVM: Java HotSpot(TM) 64-Bit Server VM
Java Version: 1.8.0_144-b01
Operating System: Windows 8.1
OS Version: 6.3
Default Encoding: Cp1252
Language: en
Country: US
--></g></svg>