<?xml version="1.0" encoding="UTF-8" standalone="no"?><svg xmlns="http://www.w3.org/2000/svg" xmlns:xlink="http://www.w3.org/1999/xlink" contentScriptType="application/ecmascript" contentStyleType="text/css" height="253px" preserveAspectRatio="none" style="width:116px;height:253px;" version="1.1" viewBox="0 0 116 253" width="116px" zoomAndPan="magnify"><defs><filter height="300%" id="f1j3582wdcbnpo" width="300%" x="-1" y="-1"><feGaussianBlur result="blurOut" stdDeviation="2.0"/><feColorMatrix in="blurOut" result="blurOut2" type="matrix" values="0 0 0 0 0 0 0 0 0 0 0 0 0 0 0 0 0 0 .4 0"/><feOffset dx="4.0" dy="4.0" in="blurOut2" result="blurOut3"/><feBlend in="SourceGraphic" in2="blurOut3" mode="normal"/></filter></defs><g><polygon fill="#FFFFFF" filter="url(#f1j3582wdcbnpo)" points="22.5,10,22.5,9.6885,32.5,9.8681,42.5,9.8497,52.5,9.7516,62.5,9.5448,72.5,9.7678,82.5,9.8552,92.5,10,92.5673,10.1625,94.2003,10.5693,95.9901,11.3549,97.7114,11.9749,99.6019,13.0034,101.3388,13.6612,101.287,13.6397,102.0104,15.4038,102.7976,17.1943,103.5498,18.9704,104.3163,20.7523,105,22.5,104.777,22.5,104.8066,26.1016,105.1093,29.7031,105.0116,33.3047,104.8317,36.9063,105,40.5078,104.9527,40.4882,104.2128,42.2528,103.4914,44.0251,102.7712,45.7978,101.8765,47.4983,101.3388,49.3466,101.3275,49.3194,99.5984,50.1448,97.8304,50.8766,96.009,51.4792,94.3213,52.4049,92.5,53.0078,92.5,52.6117,82.5,53.5005,72.5,53.6515,62.5,52.9764,52.5,53.3448,42.5,53.0011,32.5,52.8377,22.5,53.0078,22.4322,52.8441,20.679,52.1472,18.9789,51.5781,17.2023,50.8247,15.3631,49.92,13.6612,49.3466,13.6184,49.329,12.9017,47.5676,12.1246,45.7813,11.6485,44.1196,10.881,42.3372,10,40.5078,10.2167,40.5078,10.1608,36.9063,10.1626,33.3047,9.9961,29.7031,10.2171,26.1016,10,22.5,10.0489,22.5203,10.6504,20.6984,11.6097,19.0246,12.2339,17.2121,12.7555,15.3571,13.6612,13.6612,13.5776,13.4594,15.4775,13.0462,17.2404,12.3023,18.9104,11.334,20.7588,10.7964,22.5,10" style="stroke: #A80036; stroke-width: 1.5;"/><text fill="#000000" font-family="BasicHand" font-size="20" lengthAdjust="spacingAndGlyphs" textLength="75" x="20" y="40.0098">Check In Code</text><polygon fill="#FFFFFF" filter="url(#f1j3582wdcbnpo)" points="31.5,73.0078,31.5,73.3951,41.9,73.4201,52.3,72.7857,62.7,73.5815,73.1,72.7709,83.5,73.0078,83.4801,72.9597,85.2309,73.6511,87.0046,74.3975,88.7243,75.0137,90.5136,75.798,92.3388,76.669,92.4465,76.7136,93.2537,78.5124,93.9384,80.2605,94.6193,82.007,95.1321,83.6838,96,85.5078,96.0487,85.5078,96.1178,89.1094,95.8673,92.7109,95.9411,96.3125,95.8078,99.9141,96,103.5156,95.9692,103.5029,95.1824,105.248,94.5294,107.0486,93.7227,108.7856,93.2811,110.6737,92.3388,112.3545,92.2716,112.1922,90.6287,113.2258,88.8662,113.9709,87.0753,114.6471,85.2965,115.3527,83.5,116.0156,83.5,116.6014,73.1,115.4974,62.7,116.3351,52.3,115.961,41.9,115.5039,31.5,116.0156,31.5414,116.1156,29.7694,115.3732,27.9157,114.4334,26.265,113.9837,24.4154,113.054,22.6612,112.3545,22.8189,112.4198,21.9186,110.5824,21.3976,108.9021,20.3105,106.9874,19.8944,105.3506,19,103.5156,18.8857,103.5156,18.8083,99.9141,18.7552,96.3125,19.1605,92.7109,19.1024,89.1094,19,85.5078,18.8932,85.4636,19.712,83.7317,20.5839,82.0217,21.1298,80.1768,21.9606,78.4499,22.6612,76.669,22.6504,76.6429,24.4988,76.1055,26.2382,75.3048,27.8886,74.2891,29.6816,73.6179,31.5,73.0078" style="stroke: #A80036; stroke-width: 1.5;"/><text fill="#000000" font-family="BasicHand" font-size="20" lengthAdjust="spacingAndGlyphs" textLength="57" x="29" y="103.0176">Build Code</text><polygon fill="#FFFFFF" filter="url(#f1j3582wdcbnpo)" points="32.5,136.0156,32.5,135.8561,42.5,135.6139,52.5,135.8678,62.5,136.4761,72.5,136.3188,82.5,136.0156,82.5271,136.081,84.3567,136.9625,86.0361,137.4814,87.7473,138.0772,89.5396,138.8687,91.3388,139.6768,91.1893,139.6149,91.9758,141.4051,92.6673,143.156,93.4454,144.9427,94.4819,146.8365,95,148.5156,95.249,148.5156,94.7682,152.1172,94.8428,155.7188,94.9176,159.3203,94.9203,162.9219,95,166.5234,95.13,166.5773,94.3944,168.3437,93.4726,170.0329,92.8971,171.8656,92.1284,173.6182,91.3388,175.3623,91.282,175.225,89.5424,176.0253,87.8715,176.9913,85.9696,177.3998,84.3228,178.4241,82.5,179.0234,82.5,179.4802,72.5,179.5933,62.5,178.6931,52.5,178.7533,42.5,178.9905,32.5,179.0234,32.5698,179.192,30.8227,178.5097,28.9307,177.4776,27.1039,176.6028,25.4921,176.2471,23.6612,175.3623,23.8706,175.449,22.9315,173.5956,22.3512,171.8907,21.519,170.0816,20.6655,168.2636,20,166.5234,19.9009,166.5234,20.0579,162.9219,19.9061,159.3203,20.1255,155.7188,19.79,152.1172,20,148.5156,19.8865,148.4686,20.9559,146.8405,21.3813,144.9456,22.0413,143.148,22.8552,141.414,23.6612,139.6768,23.622,139.5822,25.4618,139.024,27.1844,138.1826,28.8977,137.3189,30.7663,136.8302,32.5,136.0156" style="stroke: #A80036; stroke-width: 1.5;"/><text fill="#000000" font-family="BasicHand" font-size="20" lengthAdjust="spacingAndGlyphs" textLength="55" x="30" y="166.0254">Test Code</text><polygon fill="#FFFFFF" filter="url(#f1j3582wdcbnpo)" points="25.5,199.0234,25.5,199.3443,36.1667,199.518,46.8333,199.4342,57.5,199.0052,68.1667,198.41,78.8333,199.0843,89.5,199.0234,89.4698,198.9505,91.2935,199.8178,92.9525,200.2875,94.7607,201.1172,96.5602,201.9262,98.3388,202.6846,98.4881,202.7464,98.9633,204.4077,99.7294,206.1895,100.5593,207.9978,101.3075,209.7721,102,211.5234,102.0039,211.5234,102.1175,215.125,102.1757,218.7266,102.1665,222.3281,102.1998,225.9297,102,229.5313,102.1996,229.6139,101.0644,231.2148,100.6078,233.0967,99.8789,234.8659,98.9528,236.5533,98.3388,238.3701,98.395,238.5056,96.5895,239.1468,94.8073,239.8443,92.9657,240.3982,91.3083,241.3968,89.5,242.0313,89.5,242.0644,78.8333,241.535,68.1667,241.3933,57.5,241.3522,46.8333,242.323,36.1667,241.6384,25.5,242.0313,25.5611,242.1787,23.6839,241.1824,21.9563,240.5471,20.1417,239.7017,18.3817,238.9883,16.6612,238.3701,16.5581,238.3274,15.8636,236.5753,15.017,234.7601,14.2907,232.9948,13.8134,231.3326,13,229.5313,12.9083,229.5313,12.8774,225.9297,12.8439,222.3281,13.1186,218.7266,13.12,215.125,13,211.5234,12.8582,211.4647,13.7003,209.7424,14.3009,207.9202,15.0875,206.1749,16.0833,204.5163,16.6612,202.6846,16.593,202.52,18.3567,201.7779,20.2902,201.4459,21.8704,200.2609,23.7734,199.855,25.5,199.0234" style="stroke: #A80036; stroke-width: 1.5;"/><text fill="#000000" font-family="BasicHand" font-size="20" lengthAdjust="spacingAndGlyphs" textLength="69" x="23" y="229.0332">Publish Code</text><path d="M57.5,53.0078 L57.5294,53.0078 L57.7063,57.0078 L57.2326,61.0078 L57.2084,65.0078 L57.5975,69.0078 L57.5,73.0078 " fill="#A80036" style="stroke: #A80036; stroke-width: 1.5;"/><polygon fill="#A80036" points="53.5,63.0078,53.5348,63.0217,54.5302,65.0999,55.1665,67.0344,56.025,69.0578,56.6821,71.0007,57.5,73.0078,57.4908,73.0041,58.5191,71.0955,58.9584,68.9512,59.6839,66.9214,60.5583,64.9511,61.5,63.0078,61.5156,63.0234,60.6677,63.7755,59.7406,64.4484,59.153,65.4608,58.4699,66.3778,57.5,67.0078,57.3732,66.8811,56.5492,66.057,55.7949,65.3027,54.9641,64.4719,54.2212,63.729,53.5,63.0078" style="stroke: #A80036; stroke-width: 1.0;"/><path d="M57.5,116.0156 L57.5194,116.0156 L57.6143,120.0156 L57.5717,124.0156 L57.2751,128.0156 L57.6436,132.0156 L57.5,136.0156 " fill="#A80036" style="stroke: #A80036; stroke-width: 1.5;"/><polygon fill="#A80036" points="53.5,126.0156,53.3518,125.9563,54.2991,128.0153,54.8833,129.9289,56.0542,132.0773,56.9277,134.1067,57.5,136.0156,57.7033,136.0969,58.1361,133.95,59.2969,132.0944,59.8687,130.0031,60.5036,127.9371,61.5,126.0156,61.6201,126.1358,60.5438,126.6595,59.9614,127.677,59.2256,128.5412,58.1353,129.051,57.5,130.0156,57.6369,130.1525,56.8193,129.335,55.7731,128.2888,55.1993,127.7149,54.1519,126.6675,53.5,126.0156" style="stroke: #A80036; stroke-width: 1.0;"/><path d="M57.5,179.0234 L57.1946,179.0234 L57.3954,183.0234 L57.2854,187.0234 L57.7605,191.0234 L57.2755,195.0234 L57.5,199.0234 " fill="#A80036" style="stroke: #A80036; stroke-width: 1.5;"/><polygon fill="#A80036" points="53.5,189.0234,53.3915,188.9801,54.3007,191.0237,55.0376,192.9985,55.949,195.043,56.7487,197.0429,57.5,199.0234,57.5312,199.0359,58.2875,197.0184,58.8839,194.937,59.6881,192.9387,60.6009,190.9838,61.5,189.0234,61.5227,189.0461,60.8593,189.9827,59.8982,190.6217,59.2766,191.6001,58.2249,192.1483,57.5,193.0234,57.3542,192.8777,56.7091,192.2325,55.9137,191.4371,54.9915,190.5149,54.4696,189.9931,53.5,189.0234" style="stroke: #A80036; stroke-width: 1.0;"/><!--
@startuml

skinparam handwritten true
skinparam defaultFontName BasicHand
skinparam defaultFontSize 20
skinparam ActivityBackgroundColor white

:Check In Code;
:Build Code;
:Test Code;
:Publish Code;
@enduml

PlantUML version 1.2017.15(Mon Jul 03 09:45:34 PDT 2017)
(GPL source distribution)
Java Runtime: Java(TM) SE Runtime Environment
JVM: Java HotSpot(TM) 64-Bit Server VM
Java Version: 1.8.0_144-b01
Operating System: Windows 8.1
OS Version: 6.3
Default Encoding: Cp1252
Language: en
Country: US
--></g></svg>